# xmcd
#
# Track frame offsets:
#	150
#	13025
#	24882
#	40116
#	50641
#	60733
#	73512
#	85663
#	103529
#	115526
#	126066
#	137725
#	151023
#	161800
#	171213
#	183655
#	195266
#	216275
#
# Disc length: 3105 seconds
#
# Revision: 7
# Processed by: cddbd v1.5.2PL0 Copyright (c) Steve Scherf et al.
# Submitted via: EasyCDDAExtractor 10.0.2.1
#
DISCID=e80c1f12
DTITLE=Various Artist - Complete Country [Disc 3]
DYEAR=2006
DGENRE=Country
TTITLE0=Kenny Rogers and First Edition - Ruby
TTITLE1=Linda Ronstadt and Stone Poneys - Different Drum
TTITLE2=Juice Newton - Queen of Hearts
TTITLE3=Merle Haggard and Strangers - Today I Started Loving You Again
TTITLE4=Crystal Gayle - Wrong Road Again
TTITLE5=Glen Campbell - Bonaparte's Retreat
TTITLE6=Ray Sawyer - One More Year of (Daddy's Little Girl
TTITLE7=Michael Martin Murphey - Carolina in the Pines
TTITLE8=Del Reeves - Girl on the Billboard
TTITLE9=Sonny James - Empty Arms
TTITLE10=Tennessee Ernie Ford - Shot Gun Boogie
TTITLE11=Dr. Hook - When You're In Love with a Beautiful Woman
TTITLE12=Ferlin Huskey - Gone
TTITLE13=Frank Ifield - I Remember You
TTITLE14=Billie Jo Spears - What I've Got in Mind
TTITLE15=Wanda Jackson - In the Middle of a Heartache
TTITLE16=Bobby Goldsboro - Summer, The First Time
TTITLE17=James Blundell - Kimberley Moon
EXTD=
EXTT0=
EXTT1=
EXTT2=
EXTT3=
EXTT4=
EXTT5=
EXTT6=
EXTT7=
EXTT8=
EXTT9=
EXTT10=
EXTT11=
EXTT12=
EXTT13=
EXTT14=
EXTT15=
EXTT16=
EXTT17=
PLAYORDER=
